<svg width="22" height="21" viewBox="0 0 22 21" fill="none" xmlns="http://www.w3.org/2000/svg">
<path d="M21.2423 6.125L19.3191 0H15.1173V4.375H13.3673V0H8.11731V4.375H6.36731V0H2.16556L0.26331 5.93512L0.24231 7C0.24231 7.87937 0.579184 8.67475 1.11731 9.29075V18.375C1.11731 19.8223 2.29506 21 3.74231 21H10.7423C12.1896 21 13.3673 19.8223 13.3673 18.375V10.0082C13.6928 9.81837 13.9947 9.5935 14.2423 9.31262C14.8837 10.0406 15.8234 10.5 16.8673 10.5H17.7423C18.0459 10.5 18.3356 10.4492 18.6173 10.3757V20.125C18.6173 20.6082 19.0091 21 19.4923 21V21C19.9756 21 20.3673 20.6082 20.3673 20.125V9.29075C20.9054 8.67562 21.2423 7.88025 21.2423 7V6.125ZM11.6173 14.875H2.86731V10.3757C3.14906 10.4492 3.43868 10.5 3.74231 10.5H4.61731C5.66731 10.5 6.60006 10.0257 7.24231 9.29075C7.88456 10.0257 8.81731 10.5 9.86731 10.5H11.6173V14.875Z" fill="#1F69CC"/>
</svg>
