<svg width="30" height="21" viewBox="0 0 30 21" fill="none" xmlns="http://www.w3.org/2000/svg">
<path d="M9.56083 5.07684C11.7666 3.17948 14.4151 1.86867 17.2614 1.26551C16.1372 0.592327 14.844 0.254444 13.5341 0.291658C12.2243 0.328872 10.9523 0.739632 9.86811 1.47556C9.57885 1.66793 9.33672 1.92309 9.15975 2.22202C8.98278 2.52096 8.87553 2.85597 8.846 3.2021C8.81646 3.54823 8.8654 3.89657 8.98917 4.22116C9.11294 4.54576 9.30834 4.83824 9.56083 5.07684ZM0.151629 14.4519C0.05238 13.8135 0.0843202 13.1615 0.245497 12.5358C0.406674 11.9101 0.693706 11.3238 1.08906 10.8128C0.693707 10.3017 0.406674 9.71545 0.245497 9.08976C0.0843199 8.46407 0.0523819 7.81208 0.151631 7.17363C0.198447 6.84211 0.336634 6.53017 0.550714 6.27274C0.764793 6.01531 1.04631 5.82257 1.36374 5.71609C1.68117 5.60961 2.02197 5.59361 2.34799 5.66987C2.674 5.74613 2.97234 5.91164 3.2096 6.14788L7.13227 10.0705C12.7116 4.49123 16.9616 2.3744 21.406 3.50703C20.1078 5.72322 19.4243 8.24556 19.4259 10.814C19.4274 13.3824 20.1141 15.9039 21.4149 18.1185C16.9682 19.2548 12.716 17.1388 7.13227 11.555L3.2096 15.4777C2.97234 15.7139 2.674 15.8794 2.34799 15.9557C2.02197 16.0319 1.68117 16.0159 1.36374 15.9094C1.04631 15.803 0.764794 15.6102 0.550714 15.3528C0.336633 15.0954 0.198446 14.7834 0.151629 14.4519ZM9.2105 16.899L9.56306 16.5465C10.6807 17.4402 11.8763 18.2318 13.1354 18.9119L12.5312 19.5161C10.7425 21.4192 7.2154 19.0782 9.2105 16.899ZM23.4316 17.3904C25.7236 16.1197 29.8741 14.129 29.8874 10.8128C29.8883 10.2157 29.7614 9.62541 29.515 9.08155C29.2687 8.53769 28.9088 8.0529 28.4594 7.65979C26.9498 6.28789 25.2557 5.13393 23.4264 4.23145C22.1817 6.20046 21.5215 8.48227 21.5224 10.8117C21.5234 13.1411 22.1854 15.4223 23.4316 17.3904ZM24.9457 11.555C24.7488 11.3581 24.6383 11.0912 24.6383 10.8128C24.6383 10.5344 24.7488 10.2674 24.9457 10.0705C25.1425 9.87369 25.4095 9.7631 25.6879 9.7631C25.9663 9.7631 26.2333 9.87369 26.4302 10.0705C26.627 10.2674 26.7376 10.5344 26.7376 10.8128C26.7376 11.0912 26.627 11.3581 26.4302 11.555C26.2333 11.7518 25.9663 11.8624 25.6879 11.8624C25.4095 11.8624 25.1425 11.7518 24.9457 11.555Z" fill="#1F69CC"/>
</svg>
